<mxfile host="app.diagrams.net" modified="2023-11-09T01:49:15.253Z" agent="Mozilla/5.0 (Windows NT 10.0; Win64; x64) AppleWebKit/537.36 (KHTML, like Gecko) Chrome/119.0.0.0 Safari/537.36" etag="9PBRULBk9JmHHwXOvKry" version="22.1.0" type="device">
  <diagram name="Página-1" id="aC_4h1k0y_kjbSO7QHql">
    <mxGraphModel dx="1434" dy="797" grid="1" gridSize="10" guides="1" tooltips="1" connect="1" arrows="1" fold="1" page="1" pageScale="1" pageWidth="827" pageHeight="1169" math="0" shadow="0">
      <root>
        <mxCell id="0" />
        <mxCell id="1" parent="0" />
        <mxCell id="CKOdoIwNOiDxa_bnxZwN-24" style="edgeStyle=orthogonalEdgeStyle;rounded=1;orthogonalLoop=1;jettySize=auto;html=1;entryX=1;entryY=0.5;entryDx=0;entryDy=0;endArrow=diamond;endFill=0;strokeWidth=1;endSize=6;labelBackgroundColor=none;strokeColor=#736CA8;fontColor=default;" parent="1" source="CKOdoIwNOiDxa_bnxZwN-1" target="CKOdoIwNOiDxa_bnxZwN-10" edge="1">
          <mxGeometry relative="1" as="geometry" />
        </mxCell>
        <mxCell id="CKOdoIwNOiDxa_bnxZwN-1" value="Cliente" style="swimlane;fontStyle=1;align=center;verticalAlign=top;childLayout=stackLayout;horizontal=1;startSize=26;horizontalStack=0;resizeParent=1;resizeParentMax=0;resizeLast=0;collapsible=1;marginBottom=0;whiteSpace=wrap;fillColor=#5D7F99;labelBackgroundColor=none;strokeColor=#D0CEE2;fontColor=#1A1A1A;rounded=1;" parent="1" vertex="1">
          <mxGeometry x="480" y="428" width="250" height="150" as="geometry">
            <mxRectangle x="200" y="100" width="60" height="30" as="alternateBounds" />
          </mxGeometry>
        </mxCell>
        <mxCell id="CKOdoIwNOiDxa_bnxZwN-2" value="- id_cliente: int&#xa;- nombre: string&#xa;- apellido: string&#xa;- lapiceros_alquilados: Lapicero[]" style="text;strokeColor=none;fillColor=none;align=left;verticalAlign=top;spacingLeft=4;spacingRight=4;overflow=hidden;rotatable=0;points=[[0,0.5],[1,0.5]];portConstraint=eastwest;whiteSpace=wrap;labelBackgroundColor=none;fontColor=#1A1A1A;rounded=1;" parent="CKOdoIwNOiDxa_bnxZwN-1" vertex="1">
          <mxGeometry y="26" width="250" height="74" as="geometry" />
        </mxCell>
        <mxCell id="CKOdoIwNOiDxa_bnxZwN-3" value="" style="line;strokeWidth=1;fillColor=none;align=left;verticalAlign=middle;spacingTop=-1;spacingLeft=3;spacingRight=3;rotatable=0;labelPosition=right;points=[];portConstraint=eastwest;strokeColor=#D0CEE2;labelBackgroundColor=none;fontColor=#1A1A1A;rounded=1;" parent="CKOdoIwNOiDxa_bnxZwN-1" vertex="1">
          <mxGeometry y="100" width="250" height="8" as="geometry" />
        </mxCell>
        <mxCell id="CKOdoIwNOiDxa_bnxZwN-4" value="+ alquilar_lapicero(lapicero: Lapicero): bool&#xa;+ devolver_lapicero(lapicero: Lapicero): bool" style="text;strokeColor=none;fillColor=none;align=left;verticalAlign=top;spacingLeft=4;spacingRight=4;overflow=hidden;rotatable=0;points=[[0,0.5],[1,0.5]];portConstraint=eastwest;whiteSpace=wrap;labelBackgroundColor=none;fontColor=#1A1A1A;rounded=1;" parent="CKOdoIwNOiDxa_bnxZwN-1" vertex="1">
          <mxGeometry y="108" width="250" height="42" as="geometry" />
        </mxCell>
        <mxCell id="CKOdoIwNOiDxa_bnxZwN-9" value="Lapicero" style="swimlane;fontStyle=1;align=center;verticalAlign=top;childLayout=stackLayout;horizontal=1;startSize=26;horizontalStack=0;resizeParent=1;resizeParentMax=0;resizeLast=0;collapsible=1;marginBottom=0;whiteSpace=wrap;html=1;labelBackgroundColor=none;fillColor=#5D7F99;strokeColor=#D0CEE2;fontColor=#1A1A1A;rounded=1;" parent="1" vertex="1">
          <mxGeometry x="90" y="440" width="160" height="108" as="geometry" />
        </mxCell>
        <mxCell id="CKOdoIwNOiDxa_bnxZwN-10" value="- id_lapicero: int&#xa;- marca: string&#xa;- color: string&#xa;- disponible: boolean" style="text;strokeColor=none;fillColor=none;align=left;verticalAlign=top;spacingLeft=4;spacingRight=4;overflow=hidden;rotatable=0;points=[[0,0.5],[1,0.5]];portConstraint=eastwest;whiteSpace=wrap;labelBackgroundColor=none;fontColor=#1A1A1A;rounded=1;" parent="CKOdoIwNOiDxa_bnxZwN-9" vertex="1">
          <mxGeometry y="26" width="160" height="74" as="geometry" />
        </mxCell>
        <mxCell id="CKOdoIwNOiDxa_bnxZwN-11" value="" style="line;strokeWidth=1;fillColor=none;align=left;verticalAlign=middle;spacingTop=-1;spacingLeft=3;spacingRight=3;rotatable=0;labelPosition=right;points=[];portConstraint=eastwest;strokeColor=#D0CEE2;labelBackgroundColor=none;fontColor=#1A1A1A;rounded=1;" parent="CKOdoIwNOiDxa_bnxZwN-9" vertex="1">
          <mxGeometry y="100" width="160" height="8" as="geometry" />
        </mxCell>
        <mxCell id="CKOdoIwNOiDxa_bnxZwN-22" style="edgeStyle=orthogonalEdgeStyle;rounded=1;orthogonalLoop=1;jettySize=auto;html=1;entryX=0.5;entryY=0;entryDx=0;entryDy=0;labelBackgroundColor=none;strokeColor=#736CA8;fontColor=default;" parent="1" source="CKOdoIwNOiDxa_bnxZwN-13" target="CKOdoIwNOiDxa_bnxZwN-1" edge="1">
          <mxGeometry relative="1" as="geometry" />
        </mxCell>
        <mxCell id="CKOdoIwNOiDxa_bnxZwN-13" value="Interfaz" style="swimlane;fontStyle=1;align=center;verticalAlign=top;childLayout=stackLayout;horizontal=1;startSize=26;horizontalStack=0;resizeParent=1;resizeParentMax=0;resizeLast=0;collapsible=1;marginBottom=0;whiteSpace=wrap;labelBackgroundColor=none;fillColor=#5D7F99;strokeColor=#D0CEE2;fontColor=#1A1A1A;rounded=1;" parent="1" vertex="1">
          <mxGeometry x="210" y="60" width="440" height="260" as="geometry" />
        </mxCell>
        <mxCell id="CKOdoIwNOiDxa_bnxZwN-14" value="- root: tk.Tk&#xa;- clientes: list&#xa;- lapiceros: list&#xa;- ventana_lapiceros_disponibles: tk.Toplevel&#xa;- ventana_clientes: tk.Toplevel" style="text;strokeColor=none;fillColor=none;align=left;verticalAlign=top;spacingLeft=4;spacingRight=4;overflow=hidden;rotatable=0;points=[[0,0.5],[1,0.5]];portConstraint=eastwest;whiteSpace=wrap;labelBackgroundColor=none;fontColor=#1A1A1A;rounded=1;" parent="CKOdoIwNOiDxa_bnxZwN-13" vertex="1">
          <mxGeometry y="26" width="440" height="84" as="geometry" />
        </mxCell>
        <mxCell id="CKOdoIwNOiDxa_bnxZwN-15" value="" style="line;strokeWidth=1;fillColor=none;align=left;verticalAlign=middle;spacingTop=-1;spacingLeft=3;spacingRight=3;rotatable=0;labelPosition=right;points=[];portConstraint=eastwest;strokeColor=#D0CEE2;labelBackgroundColor=none;fontColor=#1A1A1A;rounded=1;" parent="CKOdoIwNOiDxa_bnxZwN-13" vertex="1">
          <mxGeometry y="110" width="440" height="8" as="geometry" />
        </mxCell>
        <mxCell id="CKOdoIwNOiDxa_bnxZwN-16" value="+ mostrar_lapiceros_disponibles(): None&#xa;+ mostrar_clientes(): None&#xa;+ crear_cliente(): None&#xa;+ guardar_cliente(nombre: str, apellido: str, ventana: tk.Toplevel): None&#xa;+ alquilar_lapicero(): None&#xa;+ guardar_alquiler(cliente_id: str, lapicero_id: str, ventana: tk.Toplevel): None&#xa;+ devolver_lapicero(): None&#xa;+ guardar_devolucion(cliente_id: str, lapicero_id: str, ventana: tk.Toplevel): None" style="text;strokeColor=none;fillColor=none;align=left;verticalAlign=top;spacingLeft=4;spacingRight=4;overflow=hidden;rotatable=0;points=[[0,0.5],[1,0.5]];portConstraint=eastwest;whiteSpace=wrap;labelBackgroundColor=none;fontColor=#1A1A1A;rounded=1;" parent="CKOdoIwNOiDxa_bnxZwN-13" vertex="1">
          <mxGeometry y="118" width="440" height="142" as="geometry" />
        </mxCell>
        <mxCell id="CKOdoIwNOiDxa_bnxZwN-23" style="edgeStyle=orthogonalEdgeStyle;rounded=1;orthogonalLoop=1;jettySize=auto;html=1;exitX=0;exitY=0.5;exitDx=0;exitDy=0;entryX=0.5;entryY=0;entryDx=0;entryDy=0;labelBackgroundColor=none;strokeColor=#736CA8;fontColor=default;" parent="1" source="CKOdoIwNOiDxa_bnxZwN-14" target="CKOdoIwNOiDxa_bnxZwN-9" edge="1">
          <mxGeometry relative="1" as="geometry" />
        </mxCell>
        <mxCell id="CKOdoIwNOiDxa_bnxZwN-27" value="1" style="text;align=center;fontStyle=1;verticalAlign=middle;spacingLeft=3;spacingRight=3;strokeColor=none;rotatable=0;points=[[0,0.5],[1,0.5]];portConstraint=eastwest;html=1;labelBackgroundColor=none;fontColor=#1A1A1A;rounded=1;" parent="1" vertex="1">
          <mxGeometry x="430" y="470" width="80" height="26" as="geometry" />
        </mxCell>
        <mxCell id="CKOdoIwNOiDxa_bnxZwN-28" value="0..*" style="text;align=center;fontStyle=1;verticalAlign=middle;spacingLeft=3;spacingRight=3;strokeColor=none;rotatable=0;points=[[0,0.5],[1,0.5]];portConstraint=eastwest;html=1;labelBackgroundColor=none;fontColor=#1A1A1A;rounded=1;" parent="1" vertex="1">
          <mxGeometry x="230" y="470" width="80" height="26" as="geometry" />
        </mxCell>
      </root>
    </mxGraphModel>
  </diagram>
</mxfile>
